<?xml version="1.0" encoding="UTF-8"?>
<svg version="1.1" xmlns="http://www.w3.org/2000/svg" width="680" height="340">
<path d="M0 0 C4.56583551 2.50098751 8.2260739 6.03989596 10 11 C10.13958857 13.62426505 10.18931369 16.13292747 10.125 18.75 C10.11597656 19.44738281 10.10695313 20.14476563 10.09765625 20.86328125 C10.07419888 22.57566958 10.03833104 24.28788004 10 26 C10.61488281 25.97679688 11.22976563 25.95359375 11.86328125 25.9296875 C12.67152344 25.91164063 13.47976563 25.89359375 14.3125 25.875 C15.51326172 25.84019531 15.51326172 25.84019531 16.73828125 25.8046875 C19 26 19 26 22 28 C24.75190257 35.53715537 25.78200578 43.84261303 27 51.75 C27.16661133 52.81694092 27.33322266 53.88388184 27.50488281 54.9831543 C28.67186525 62.58137024 29.75521679 70.1898529 30.75 77.8125 C30.87761719 78.75899414 31.00523437 79.70548828 31.13671875 80.68066406 C33.37376617 98.54562418 33.37376617 98.54562418 30.70605469 103.31176758 C28.19443365 106.43950223 25.71271524 108.45757098 22 110 C19.31948853 110.26742554 19.31948853 110.26742554 16.22509766 110.29052734 C15.06354156 110.30328705 13.90198547 110.31604675 12.70523071 110.32919312 C11.4541452 110.33141876 10.20305969 110.33364441 8.9140625 110.3359375 C7.62438568 110.3425943 6.33470886 110.3492511 5.00595093 110.35610962 C2.27737074 110.36807123 -0.45108295 110.37179164 -3.1796875 110.37060547 C-6.66563689 110.37040239 -10.15077 110.3976964 -13.63652611 110.43214989 C-16.9738416 110.4598187 -20.31100887 110.45856944 -23.6484375 110.4609375 C-24.89547455 110.47530853 -26.1425116 110.48967957 -27.42733765 110.50448608 C-35.83316783 110.46019718 -39.42291434 109.57708566 -45.375 103.625 C-49.71190677 93.95036183 -46.55122534 82.61618869 -44.63476562 72.61572266 C-43.55068911 66.77889603 -42.73713592 60.97119458 -42.20703125 55.05859375 C-42.14597702 54.3845047 -42.08492279 53.71041565 -42.02201843 53.01589966 C-41.72668876 49.68755744 -41.45800341 46.36014597 -41.21557617 43.02734375 C-40.61842045 35.90860661 -40.16130818 31.16130818 -35 26 C-33.48071962 25.92820036 -31.95832518 25.91607993 -30.4375 25.9375 C-29.61121094 25.94652344 -28.78492188 25.95554687 -27.93359375 25.96484375 C-26.97646484 25.98224609 -26.97646484 25.98224609 -26 26 C-26.06960938 25.16597656 -26.13921875 24.33195312 -26.2109375 23.47265625 C-26.55605504 16.2991417 -26.2358409 11.52343882 -21.6796875 5.8125 C-15.49326726 -0.86307905 -8.82620291 -1.51794606 0 0 Z " fill="#F5542C" transform="translate(481,98)"/>
<path d="M0 0 C2.0234375 1.0234375 2.0234375 1.0234375 5.2734375 3.2109375 C6.2634375 3.7884375 7.2534375 4.3659375 8.2734375 4.9609375 C8.9334375 5.3734375 9.5934375 5.7859375 10.2734375 6.2109375 C10.2734375 3.9009375 10.2734375 1.5909375 10.2734375 -0.7890625 C13.41925173 -0.81794764 16.56503219 -0.83582173 19.7109375 -0.8515625 C20.60876953 -0.85994141 21.50660156 -0.86832031 22.43164062 -0.87695312 C23.28564453 -0.88017578 24.13964844 -0.88339844 25.01953125 -0.88671875 C25.81029053 -0.89195557 26.6010498 -0.89719238 27.41577148 -0.90258789 C29.2734375 -0.7890625 29.2734375 -0.7890625 30.2734375 0.2109375 C30.37278898 2.23043959 30.40143258 4.25344665 30.40283203 6.27539062 C30.40598419 7.57343628 30.40913635 8.87148193 30.41238403 10.2088623 C30.41059425 11.63663771 30.4085433 13.06441281 30.40625 14.4921875 C30.40692308 15.94567888 30.40789314 17.39917014 30.40914917 18.85266113 C30.41062596 21.90259877 30.4084722 24.95250716 30.40380859 28.00244141 C30.3981113 31.92024309 30.40139041 35.83797628 30.40738106 39.75577545 C30.41098719 42.75824504 30.40984785 45.76069827 30.40725327 48.76316833 C30.40658414 50.20812488 30.40741192 51.65308289 30.40973282 53.09803772 C30.41226015 55.11418633 30.40772802 57.13034012 30.40283203 59.14648438 C30.40203644 60.29596558 30.40124084 61.44544678 30.40042114 62.62976074 C30.2734375 65.2109375 30.2734375 65.2109375 29.2734375 66.2109375 C27.94300125 66.3093096 26.60750406 66.34172342 25.2734375 66.34375 C24.4690625 66.34503906 23.6646875 66.34632813 22.8359375 66.34765625 C21.9903125 66.34378906 21.1446875 66.33992188 20.2734375 66.3359375 C19.4278125 66.33980469 18.5821875 66.34367187 17.7109375 66.34765625 C16.9065625 66.34636719 16.1021875 66.34507812 15.2734375 66.34375 C14.5309375 66.34262207 13.7884375 66.34149414 13.0234375 66.34033203 C11.2734375 66.2109375 11.2734375 66.2109375 10.2734375 65.2109375 C10.23262967 63.21135386 10.23089394 61.21048496 10.2734375 59.2109375 C9.314375 59.79875 9.314375 59.79875 8.3359375 60.3984375 C7.3253125 60.9965625 6.3146875 61.5946875 5.2734375 62.2109375 C4.65339844 62.6440625 4.03335938 63.0771875 3.39453125 63.5234375 C-3.11505505 67.74327981 -9.09484243 68.36866203 -16.7265625 67.2109375 C-27.20554813 63.6843558 -33.85447446 56.97098358 -38.7265625 47.2109375 C-40.14665262 42.52272858 -39.94968362 37.81929567 -39.9765625 32.9609375 C-39.9971875 32.04441406 -40.0178125 31.12789062 -40.0390625 30.18359375 C-40.0933206 20.67486157 -37.39325333 13.14944619 -30.7265625 6.2109375 C-21.61020183 -0.86421784 -11.35182105 -3.2851975 0 0 Z " fill="#3D9BFE" transform="translate(293.7265625,147.7890625)"/>
<path d="M0 0 C6.6 0 13.2 0 20 0 C20.0093457 1.72557129 20.01869141 3.45114258 20.02832031 5.22900391 C20.06391171 10.94485156 20.11775007 16.66033463 20.18390274 22.37590981 C20.22332995 25.83965511 20.25554121 29.30314804 20.27099609 32.76708984 C20.28910553 36.75390937 20.33907812 40.74002956 20.390625 44.7265625 C20.39185364 45.96427399 20.39308228 47.20198547 20.39434814 48.47720337 C20.5134108 57.04850522 20.5134108 57.04850522 25 64 C29.6815191 67.12101274 34.51805102 66.45682908 40 66 C43.81498583 64.79526763 45.33634749 63.94253256 47.62036133 60.69873047 C49.68600164 55.16086979 49.48088924 49.81137335 49.51171875 43.9453125 C49.52966995 42.68862762 49.54762115 41.43194275 49.56611633 40.13717651 C49.61100911 36.81304376 49.6433604 33.48927661 49.66955566 30.16497803 C49.69945334 26.76610078 49.74595173 23.36745402 49.79101562 19.96875 C49.8759166 13.31258591 49.9427422 6.65645697 50 0 C56.27 0 62.54 0 69 0 C69.04536992 7.40681351 69.08198418 14.81354976 69.10362434 22.22047329 C69.11401591 25.66062564 69.12808935 29.10067715 69.15087891 32.54077148 C69.17697348 36.50503286 69.18651104 40.46925486 69.1953125 44.43359375 C69.20563507 45.65582138 69.21595764 46.87804901 69.22659302 48.13731384 C69.22797851 58.78123688 68.37713576 66.93291629 61 75 C52.98520491 82.83668853 43.85903256 85.30275679 32.92553711 85.31469727 C23.74794265 85.12789569 16.40283389 82.36323291 9.78515625 75.9765625 C0.45126909 65.64188657 -0.31686363 55.550771 -0.1953125 41.9921875 C-0.1924826 40.7855545 -0.18965271 39.57892151 -0.18673706 38.33572388 C-0.17562141 34.5153779 -0.15053273 30.69527406 -0.125 26.875 C-0.11495907 24.27083674 -0.10583518 21.66666977 -0.09765625 19.0625 C-0.07571029 12.7082413 -0.04124019 6.35416158 0 0 Z " fill="#E65024" transform="translate(522,124)"/>
<path d="M0 0 C3.47679981 0.31951244 6.94767803 0.66251905 10.41796875 1.046875 C12.18720703 1.21703125 12.18720703 1.21703125 13.9921875 1.390625 C15.12269531 1.5246875 16.25320312 1.65875 17.41796875 1.796875 C18.96484375 1.97476563 18.96484375 1.97476563 20.54296875 2.15625 C24.33574653 3.33118659 25.92296767 4.9823166 28.41796875 8.046875 C29.8671875 10.97265625 29.8671875 10.97265625 31.10546875 14.359375 C31.60690232 15.6897367 32.11100858 17.01909282 32.6171875 18.34765625 C32.8961084 19.08580566 33.1750293 19.82395508 33.46240234 20.58447266 C35.34878983 25.44551103 37.39796282 30.24022761 39.41796875 35.046875 C43.16919369 44.01535278 46.83734985 53.00910888 50.41796875 62.046875 C50.97064139 63.42606709 51.52405397 64.80496285 52.078125 66.18359375 C52.35430664 66.87122803 52.63048828 67.5588623 52.91503906 68.26733398 C53.68281688 70.17827321 54.4507774 72.08913904 55.21875 74 C56.00426537 75.99577194 56.73972543 78.01214503 57.41796875 80.046875 C58.59359375 80.1396875 58.59359375 80.1396875 59.79296875 80.234375 C62.41796875 81.046875 62.41796875 81.046875 63.73046875 83.296875 C64.40857685 86.00930738 64.57694073 88.26486533 64.41796875 91.046875 C61.77796875 91.376875 59.13796875 91.706875 56.41796875 92.046875 C56.41796875 93.366875 56.41796875 94.686875 56.41796875 96.046875 C57.82071548 96.05900528 57.82071548 96.05900528 59.25180054 96.07138062 C68.05155421 96.1487614 76.85115174 96.23647992 85.65070152 96.33440208 C90.17498057 96.38441415 94.69923571 96.43074356 99.22363281 96.46875 C103.58739853 96.50554104 107.95096652 96.55188372 112.31456375 96.60493851 C113.98194547 96.62351545 115.64936962 96.63861113 117.31681442 96.65021896 C119.64680108 96.66702533 121.97633163 96.69604567 124.30615234 96.72802734 C125.3473246 96.73126762 125.3473246 96.73126762 126.40953064 96.73457336 C131.18986443 96.81877068 131.18986443 96.81877068 133.41796875 99.046875 C133.73046875 102.046875 133.73046875 102.046875 133.41796875 105.046875 C129.77379135 107.4763266 127.70555603 107.20867075 123.41796875 107.046875 C123.74796875 107.706875 124.07796875 108.366875 124.41796875 109.046875 C124.79296875 112.421875 124.79296875 112.421875 124.41796875 116.046875 C121.66614397 119.29903156 120.01535335 119.96447712 115.79296875 120.546875 C112.41796875 120.046875 112.41796875 120.046875 110.48046875 118.484375 C109.05276207 115.20904791 109.15613059 112.5816902 109.41796875 109.046875 C109.74796875 108.386875 110.07796875 107.726875 110.41796875 107.046875 C99.85796875 107.046875 89.29796875 107.046875 78.41796875 107.046875 C78.74796875 107.706875 79.07796875 108.366875 79.41796875 109.046875 C79.79296875 112.421875 79.79296875 112.421875 79.41796875 116.046875 C76.66614397 119.29903156 75.01535335 119.96447712 70.79296875 120.546875 C67.41796875 120.046875 67.41796875 120.046875 65.48046875 118.484375 C64.05276207 115.20904791 64.15613059 112.5816902 64.41796875 109.046875 C64.74796875 108.386875 65.07796875 107.726875 65.41796875 107.046875 C64.54785156 107.09908203 64.54785156 107.09908203 63.66015625 107.15234375 C57.10497953 107.37950334 53.11791723 106.3915671 48.04296875 101.984375 C45.71130688 97.76944777 45.88387274 93.774938 46.41796875 89.046875 C46.74796875 88.716875 47.07796875 88.386875 47.41796875 88.046875 C47.06842388 81.20386188 45.45725132 75.88623248 42.66796875 69.671875 C42.3328125 68.8984375 41.99765625 68.125 41.65234375 67.328125 C40.20471646 64.00516236 38.72238184 60.70102639 37.19311523 57.41479492 C34.1038805 50.75577783 31.47910751 44.00913843 28.98046875 37.109375 C24.66155155 24.61827691 24.66155155 24.61827691 18.41796875 13.046875 C13.94152321 11.55472649 9.26252382 11.37149488 4.578125 10.97265625 C-1.15924075 10.3859932 -1.15924075 10.3859932 -3.30664062 8.66357422 C-4.58203125 7.046875 -4.58203125 7.046875 -4.89453125 4.484375 C-4.445075 0.97861628 -3.54993085 0.06444655 0 0 Z " fill="#0D87EB" transform="translate(94.58203125,99.953125)"/>
<path d="M0 0 C1.27423828 -0.00193359 1.27423828 -0.00193359 2.57421875 -0.00390625 C3.91419922 0.00189453 3.91419922 0.00189453 5.28125 0.0078125 C6.17457031 0.00394531 7.06789063 0.00007812 7.98828125 -0.00390625 C8.83777344 -0.00261719 9.68726563 -0.00132812 10.5625 0 C11.34689453 0.00112793 12.13128906 0.00225586 12.93945312 0.00341797 C14.78125 0.1328125 14.78125 0.1328125 15.78125 1.1328125 C15.85444621 3.82936104 15.87367537 6.49972708 15.84375 9.1953125 C15.83923828 9.95392578 15.83472656 10.71253906 15.83007812 11.49414062 C15.8182568 13.37373121 15.80032078 15.25328149 15.78125 17.1328125 C20.07125 17.1328125 24.36125 17.1328125 28.78125 17.1328125 C28.78125 22.7428125 28.78125 28.3528125 28.78125 34.1328125 C24.49125 34.1328125 20.20125 34.1328125 15.78125 34.1328125 C15.89922018 38.52957238 16.02344726 42.92609649 16.15356445 47.32250977 C16.19696813 48.81920519 16.23863913 50.31595189 16.27856445 51.81274414 C16.33613616 53.95995562 16.39986716 56.10690771 16.46484375 58.25390625 C16.50150146 59.5473999 16.53815918 60.84089355 16.57592773 62.17358398 C16.4479778 65.01836258 16.4479778 65.01836258 17.78125 66.1328125 C19.61031235 66.34118669 21.44513134 66.50030909 23.28125 66.6328125 C28.67013889 67.02170139 28.67013889 67.02170139 29.78125 68.1328125 C29.88100032 70.64417354 29.92007183 73.12184665 29.90625 75.6328125 C29.91205078 76.68662109 29.91205078 76.68662109 29.91796875 77.76171875 C29.90786378 83.00619872 29.90786378 83.00619872 28.78125 84.1328125 C10.04539435 85.40835624 10.04539435 85.40835624 2.78125 80.1328125 C-2.79999147 74.91556504 -4.96305264 69.01862965 -5.45800781 61.49682617 C-5.54933705 57.35325721 -5.48144489 53.21359827 -5.40625 49.0703125 C-5.39117256 47.61785245 -5.37748958 46.16537723 -5.36523438 44.71289062 C-5.33247861 41.18587793 -5.28086664 37.65944465 -5.21875 34.1328125 C-7.85875 34.1328125 -10.49875 34.1328125 -13.21875 34.1328125 C-13.21875 28.5228125 -13.21875 22.9128125 -13.21875 17.1328125 C-10.57875 17.1328125 -7.93875 17.1328125 -5.21875 17.1328125 C-5.23035156 15.98941406 -5.24195313 14.84601563 -5.25390625 13.66796875 C-5.26328288 12.17708496 -5.27238321 10.68619941 -5.28125 9.1953125 C-5.28962891 8.44056641 -5.29800781 7.68582031 -5.30664062 6.90820312 C-5.31527441 4.98286937 -5.27099333 3.05745669 -5.21875 1.1328125 C-3.66268249 -0.42325501 -2.15917629 0.00310481 0 0 Z " fill="#419DFE" transform="translate(394.21875,129.8671875)"/>
<path d="M0 0 C6.27 0 12.54 0 19 0 C21.04698414 2.04698414 20.70045693 6.30411241 21 9 C21.62648438 8.43410156 22.25296875 7.86820313 22.8984375 7.28515625 C23.71570313 6.55167969 24.53296875 5.81820312 25.375 5.0625 C26.18710937 4.33160156 26.99921875 3.60070312 27.8359375 2.84765625 C32.61760435 -1.23488602 33.09004557 0 41 0 C41 6.6 41 13.2 41 20 C35.77539062 20.5859375 35.77539062 20.5859375 30.55078125 21.171875 C26.64136602 22.08364181 24.7786813 23.1336794 22 26 C20.67136411 30.06922797 20.77346542 34.243212 20.68359375 38.484375 C20.66281265 39.29996887 20.64203156 40.11556274 20.62062073 40.95587158 C20.55538703 43.55383105 20.49636232 46.15188913 20.4375 48.75 C20.39428986 50.514333 20.35067478 52.27865613 20.30664062 54.04296875 C20.19897257 58.36187968 20.0997049 62.68086854 20 67 C13.4 67 6.8 67 0 67 C0 44.89 0 22.78 0 0 Z " fill="#3D9AFD" transform="translate(336,147)"/>
<path d="M0 0 C8.94463131 -0.06946766 17.88916996 -0.12279465 26.83401203 -0.15543652 C30.98733857 -0.17110189 35.14048075 -0.19235582 39.29370117 -0.22631836 C43.30075585 -0.2588811 47.30763304 -0.27684645 51.3148098 -0.28463173 C52.84466535 -0.29018082 54.37451103 -0.30101676 55.90429115 -0.31719017 C58.04488855 -0.33892415 60.18474973 -0.34196872 62.32543945 -0.34057617 C63.54455521 -0.34723801 64.76367096 -0.35389984 66.01972961 -0.36076355 C69 0 69 0 70.9271698 1.38017273 C72 3 72 3 71.83984375 5.2578125 C70.84515921 8.50557318 69.73765692 11.68777915 68.5625 14.875 C67.30017229 18.30400961 66.08646153 21.69497263 65.08984375 25.2109375 C63.58089413 30.45710642 61.78998514 35.59406454 60 40.75 C59.64421875 41.79027344 59.2884375 42.83054688 58.921875 43.90234375 C58.57640625 44.89878906 58.2309375 45.89523438 57.875 46.921875 C57.56304687 47.82518555 57.25109375 48.72849609 56.9296875 49.65917969 C56 52 56 52 54 55 C51.60363143 55.67992803 49.38274477 56.16703091 46.9375 56.5625 C46.23302734 56.68471924 45.52855469 56.80693848 44.80273438 56.93286133 C39.55308812 57.81494553 34.28349592 58.54127467 29 59.1875 C27.97894165 59.31330444 27.97894165 59.31330444 26.93725586 59.44165039 C22.24166107 59.97306491 17.71158812 60.30970568 13 60 C10.5705484 56.3558226 10.83820425 54.28758728 11 50 C12.17433594 49.87882812 13.34867188 49.75765625 14.55859375 49.6328125 C25.38343237 48.50859459 36.19494784 47.30048003 47 46 C52.20501552 31.24504352 52.20501552 31.24504352 57.17578125 16.41015625 C58.03112092 13.90899711 59.01827716 11.45430709 60 9 C40.86 9 21.72 9 2 9 C0 3 0 3 0 0 Z " fill="#56AAFE" transform="translate(176,127)"/>
<path d="M0 0 C2.73761091 2.73761091 2.78176042 5.02222484 3.5 8.8125 C3.62818115 9.48031494 3.7563623 10.14812988 3.88842773 10.83618164 C4.91048456 16.25571337 5.73394268 21.70005178 6.53515625 27.15625 C6.91443344 29.47653398 7.38133055 31.67384123 8 33.9375 C9.27666518 38.67512469 9.83161464 43.51250123 10.4921875 48.3671875 C11.22325088 53.59710248 12.11130095 58.79476271 13 64 C4.585 64.495 4.585 64.495 -4 65 C-6.38947903 51.34236859 -8.74551874 37.6806022 -11 24 C-12.36125 25.2375 -12.36125 25.2375 -13.75 26.5 C-16.53624497 29.03294997 -16.87258261 29 -21 29 C-22.80538103 24.423077 -24.24055117 19.87204505 -23 15 C-20.92776654 11.75317918 -18.3855947 9.22757964 -15.5625 6.625 C-14.49612305 5.63487915 -14.49612305 5.63487915 -13.40820312 4.62475586 C-8.99733105 0.86621697 -6.02803842 -1.05166789 0 0 Z " fill="#E33B22" transform="translate(167,122)"/>
<path d="M0 0 C1.11246094 -0.0103125 2.22492188 -0.020625 3.37109375 -0.03125 C8.18167478 0.76953216 10.43863417 3.03355226 13.34375 6.82421875 C15.98171107 12.6158961 15.75477337 20.12698729 13.6484375 26.0859375 C11.14020292 30.43893815 8.44088097 32.93891809 3.5625 34.5 C-1.47115251 35.02985816 -4.44549474 34.6515831 -8.4375 31.5 C-14.04759393 25.55710389 -14.78494619 21.77802751 -14.72265625 13.70703125 C-14.35936737 9.62127553 -13.20786492 7.50122867 -10.4375 4.5 C-9.86386719 3.80003906 -9.29023438 3.10007813 -8.69921875 2.37890625 C-5.7001706 -0.11253099 -3.85791658 -0.03568015 0 0 Z " fill="#F9FCFE" transform="translate(288.4375,163.5)"/>
<path d="M0 0 C9.48346015 -0.04627819 18.96688161 -0.08184612 28.45042992 -0.10362434 C32.85371251 -0.11407518 37.25691802 -0.12825796 41.66015625 -0.15087891 C45.90709824 -0.17256112 50.15396596 -0.18455883 54.40095901 -0.18975449 C56.02373042 -0.19345858 57.64649762 -0.20069146 59.26923752 -0.21146011 C61.53684117 -0.2259138 63.80413528 -0.22798054 66.07177734 -0.22705078 C67.36417328 -0.231492 68.65656921 -0.23593323 69.98812866 -0.24050903 C73 0 73 0 75 2 C75.3125 5 75.3125 5 75 8 C71.3558226 10.4294516 69.28758728 10.16179575 65 10 C65.495 10.99 65.495 10.99 66 12 C66.375 15.375 66.375 15.375 66 19 C63.24817522 22.25215656 61.5973846 22.91760212 57.375 23.5 C54 23 54 23 52.0625 21.4375 C50.63479332 18.16217291 50.73816184 15.5348152 51 12 C51.33 11.34 51.66 10.68 52 10 C41.44 10 30.88 10 20 10 C20 9.67 20 9.34 20 9 C24.62 9 29.24 9 34 9 C34 8.01 34 7.02 34 6 C29.545 6.495 29.545 6.495 25 7 C24.34 5.02 23.68 3.04 23 1 C15.41 1 7.82 1 0 1 C0 0.67 0 0.34 0 0 Z " fill="#3A9DFD" transform="translate(153,197)"/>
<path d="M0 0 C3.72026939 2.20510513 6.3952793 3.79557626 7.8359375 8.0234375 C8.10068244 12.70412795 7.92283366 17.3310447 7.8359375 22.0234375 C-1.0740625 22.0234375 -9.9840625 22.0234375 -19.1640625 22.0234375 C-19.1640625 7.09486607 -19.1640625 7.09486607 -16.1640625 3.0234375 C-11.58356332 -1.12763988 -5.83574479 -2.63345884 0 0 Z " fill="#FCF8F7" transform="translate(479.1640625,101.9765625)"/>
<path d="M0 0 C3.6875 0.3125 3.6875 0.3125 7 1 C5.75037201 4.74888398 4.22103014 5.64619319 1.125 8.0625 C-4.05492278 12.1861248 -8.93726538 16.52417211 -13.78515625 21.03125 C-16 23 -16 23 -18 24 C-13.0577081 26.51449939 -8.1182341 28.86740246 -3 31 C-2.9175 30.34 -2.835 29.68 -2.75 29 C-1.75240209 25.00960837 0.07166683 21.61450357 2 18 C3.65 18.33 5.3 18.66 7 19 C6.79503906 19.67546875 6.59007812 20.3509375 6.37890625 21.046875 C6.10949219 21.93890625 5.84007812 22.8309375 5.5625 23.75 C5.29566406 24.63171875 5.02882813 25.5134375 4.75390625 26.421875 C4.11531506 28.60565835 3.53224167 30.78835498 3 33 C4.32 33.66 5.64 34.32 7 35 C6.67 36.65 6.34 38.3 6 40 C1.25 39.125 1.25 39.125 -1 38 C-1.66 40.97 -2.32 43.94 -3 47 C-4.65 46.67 -6.3 46.34 -8 46 C-9 43 -9 43 -7 36 C-16.9 32.04 -16.9 32.04 -27 28 C-25.92818539 22.64092696 -24.51753253 21.09385589 -20.625 17.75 C-20.09205322 17.27691406 -19.55910645 16.80382812 -19.01000977 16.31640625 C-14.53669115 12.37708715 -9.93413815 8.59496498 -5.27734375 4.875 C-3.02216409 3.11575184 -3.02216409 3.11575184 -1.421875 1.23046875 C-0.95265625 0.82441406 -0.4834375 0.41835937 0 0 Z " fill="#3D8FEA" transform="translate(481,148)"/>
<path d="M0 0 C4.38677025 1.85594126 8.43004247 4.74972754 11.171875 8.6796875 C12.36206279 12.01445896 12.21077113 15.25977487 12.125 18.75 C12.11597656 19.44738281 12.10695313 20.14476563 12.09765625 20.86328125 C12.07419888 22.57566958 12.03833104 24.28788004 12 26 C8.00030398 27.99984801 2.96906905 27.44394459 -1.4375 27.625 C-3.03174805 27.70234375 -3.03174805 27.70234375 -4.65820312 27.78125 C-5.67720703 27.82507813 -6.69621094 27.86890625 -7.74609375 27.9140625 C-8.68122803 27.9548291 -9.6163623 27.9955957 -10.57983398 28.03759766 C-13 28 -13 28 -16 27 C-17.06004496 30.54316575 -17.06004496 30.54316575 -16 33.9375 C-14.56241669 36.90251557 -15.18553779 38.87789488 -16 42 C-18 44 -18 44 -21.5 44.3125 C-22.655 44.209375 -23.81 44.10625 -25 44 C-27.30441554 40.54337669 -27.25860135 39.05142119 -27 35 C-26.67 34.34 -26.34 33.68 -26 33 C-25.01 33 -24.02 33 -23 33 C-22.67 34.65 -22.34 36.3 -22 38 C-21.34 38 -20.68 38 -20 38 C-20 36.02 -20 34.04 -20 32 C-20.66 32 -21.32 32 -22 32 C-21.625 29.5625 -21.625 29.5625 -21 27 C-18.23382437 25.61691219 -15.98982 25.88789804 -12.8984375 25.90234375 C-11.68671875 25.90556641 -10.475 25.90878906 -9.2265625 25.91210938 C-7.95554687 25.92048828 -6.68453125 25.92886719 -5.375 25.9375 C-4.09625 25.94201172 -2.8175 25.94652344 -1.5 25.95117188 C1.66671292 25.96298797 4.83333356 25.97946185 8 26 C7.91249445 23.77011716 7.80430939 21.54103995 7.6875 19.3125 C7.62949219 18.07113281 7.57148438 16.82976562 7.51171875 15.55078125 C6.98243322 11.87810532 6.2436773 9.92101385 4 7 C0.93319201 5.17370206 0.93319201 5.17370206 -2 4 C-1.34 2.68 -0.68 1.36 0 0 Z " fill="#F78251" transform="translate(479,98)"/>
<path d="M0 0 C0.33 0.66 0.66 1.32 1 2 C-0.32064453 2.23783203 -0.32064453 2.23783203 -1.66796875 2.48046875 C-10.62946 4.09025798 -10.62946 4.09025798 -17 10 C-18.10514766 13.31544299 -18.32107631 16.20410111 -18.5625 19.6875 C-18.64628906 20.86699219 -18.73007812 22.04648438 -18.81640625 23.26171875 C-18.87699219 24.16535156 -18.93757813 25.06898437 -19 26 C-19.33 26 -19.66 26 -20 26 C-20 21.38 -20 16.76 -20 12 C-20.66 12 -21.32 12 -22 12 C-22.33 16.62 -22.66 21.24 -23 26 C-23.33 26 -23.66 26 -24 26 C-24.65964428 18.09648426 -24.75927325 12.19917743 -19.6875 5.8125 C-13.65546266 -0.66635492 -8.44267025 -0.49180603 0 0 Z " fill="#EE722B" transform="translate(479,98)"/>
<path d="M0 0 C2.77425784 1.38712892 3.61161954 3.2926581 5 6 C5.33 4.35 5.66 2.7 6 1 C6.33 1 6.66 1 7 1 C7.3125 4.25 7.3125 4.25 7 8 C4.21455401 11.29189072 2.60112595 11.92867997 -1.6875 12.4375 C-2.780625 12.293125 -3.87375 12.14875 -5 12 C-5.66 11.01 -6.32 10.02 -7 9 C-6.34 9 -5.68 9 -5 9 C-5.0928125 7.6078125 -5.0928125 7.6078125 -5.1875 6.1875 C-5 3 -5 3 -3.75 1.0625 C-2 0 -2 0 0 0 Z " fill="#2F9FFC" transform="translate(212,208)"/>
<path d="M0 0 C0.66 0 1.32 0 2 0 C2.33 1.98 2.66 3.96 3 6 C3.99 6 4.98 6 6 6 C6.33 4.35 6.66 2.7 7 1 C7.99 1.33 8.98 1.66 10 2 C10.36 7.4 10.36 7.4 8.875 9.875 C6.08893958 11.54663625 4.18011138 11.46376624 1 11 C-0.9375 9.375 -0.9375 9.375 -2 7 C-1.57446809 1.57446809 -1.57446809 1.57446809 0 0 Z " fill="#F3EEF1" transform="translate(485,131)"/>
<path d="M0 0 C0.99 0.33 1.98 0.66 3 1 C4.31372549 6.25490196 4.31372549 6.25490196 3 9.375 C1 11 1 11 -2.5625 11.4375 C-3.696875 11.293125 -4.83125 11.14875 -6 11 C-8.29013653 7.5647952 -8.17842973 6.014669 -8 2 C-7.01 1.67 -6.02 1.34 -5 1 C-4.67 2.65 -4.34 4.3 -4 6 C-3.01 6 -2.02 6 -1 6 C-0.67 4.02 -0.34 2.04 0 0 Z " fill="#F4F1F3" transform="translate(460,131)"/>
<path d="M0 0 C0.33 0 0.66 0 1 0 C0.94670532 1.25490234 0.94670532 1.25490234 0.89233398 2.53515625 C0.76222217 5.67347919 0.6380781 8.81196871 0.51782227 11.95068359 C0.43893458 13.96339868 0.35331849 15.97584644 0.26757812 17.98828125 C0.02357006 24.46262845 -0.10102013 30.60592753 1 37 C-3.62922425 32.04077164 -3.51381815 28.68511512 -3.33984375 22.13671875 C-2.84074767 14.68318505 -1.39579526 7.32792512 0 0 Z " fill="#DA7653" transform="translate(437,166)"/>
<path d="M0 0 C1.32 0 2.64 0 4 0 C3.56902075 5.31541078 1.50955757 9.56943855 -0.74609375 14.31640625 C-1.92851713 16.84701329 -2.98807996 19.39724753 -4 22 C-4.33 22 -4.66 22 -5 22 C-4.50717265 16.98958857 -3.89456753 12.02869833 -3.0625 7.0625 C-2.90910156 6.14597656 -2.75570312 5.22945312 -2.59765625 4.28515625 C-2 2 -2 2 0 0 Z " fill="#43A7FC" transform="translate(209,143)"/>
<path d="M0 0 C3.82415277 1.61791079 7.43813428 3.69129026 10 7 C10.7278112 10.13836578 10.57200742 13.1123923 10.375 16.3125 C10.34792969 17.14845703 10.32085937 17.98441406 10.29296875 18.84570312 C10.22259563 20.89825247 10.11498322 22.94946591 10 25 C9.67 25 9.34 25 9 25 C8.89042969 24.11957031 8.78085937 23.23914063 8.66796875 22.33203125 C8.50941406 21.17058594 8.35085938 20.00914063 8.1875 18.8125 C8.03667969 17.66394531 7.88585937 16.51539062 7.73046875 15.33203125 C6.98343886 11.92445642 6.07119868 9.78815207 4 7 C0.93319201 5.17370206 0.93319201 5.17370206 -2 4 C-1.34 2.68 -0.68 1.36 0 0 Z " fill="#FA874D" transform="translate(479,98)"/>
<path d="M0 0 C2.26490337 3.39735506 2.49835662 5.41987398 3 9.4375 C3.85870778 15.98685058 4.87937915 22.49086189 6 29 C3.36 29 0.72 29 -2 29 C1 27 1 27 3 27 C2.7834375 25.72125 2.566875 24.4425 2.34375 23.125 C2.06216567 21.41672174 1.78093446 19.70838525 1.5 18 C1.35691406 17.16082031 1.21382812 16.32164062 1.06640625 15.45703125 C0.21519758 10.22817799 -0.14714583 5.29724973 0 0 Z " fill="#91757A" transform="translate(174,157)"/>
<path d="M0 0 C2.475 0.495 2.475 0.495 5 1 C5 6.94 5 12.88 5 19 C2.2574117 16.2574117 2.14687766 13.84002249 1.375 10.0625 C1.11460937 8.81597656 0.85421875 7.56945312 0.5859375 6.28515625 C0 3 0 3 0 0 Z " fill="#238ED6" transform="translate(181,143)"/>
<path d="M0 0 C1 1 1 1 1.125 3.5 C1 6 1 6 0 7 C-2.5 7.125 -2.5 7.125 -5 7 C-6 6 -6 6 -6.0625 2.9375 C-6.041875 1.968125 -6.02125 0.99875 -6 0 C-3.49749232 -1.25125384 -2.59701335 -0.83774624 0 0 Z " fill="#E5F1FD" transform="translate(214,209)"/>
<path d="M0 0 C1 1 1 1 1.125 3.5 C1 6 1 6 0 7 C-2.5 7.125 -2.5 7.125 -5 7 C-6 6 -6 6 -6.0625 2.9375 C-6.041875 1.968125 -6.02125 0.99875 -6 0 C-3.49749232 -1.25125384 -2.59701335 -0.83774624 0 0 Z " fill="#E3EEFB" transform="translate(169,209)"/>
<path d="M0 0 C1.65 0 3.3 0 5 0 C4.67 1.98 4.34 3.96 4 6 C3.34 6 2.68 6 2 6 C2 7.98 2 9.96 2 12 C0.0625 12.5625 0.0625 12.5625 -2 13 C-3 12 -3 12 -3.0625 9.4375 C-3.041875 8.633125 -3.02125 7.82875 -3 7 C-3.66 6.67 -4.32 6.34 -5 6 C-4.01 6 -3.02 6 -2 6 C-1.67 7.65 -1.34 9.3 -1 11 C-0.34 11 0.32 11 1 11 C1 9.02 1 7.04 1 5 C0.34 5 -0.32 5 -1 5 C-0.67 3.35 -0.34 1.7 0 0 Z " fill="#FD5D2C" transform="translate(458,125)"/>
<path d="M0 0 C0.66 0 1.32 0 2 0 C2.33 4.95 2.66 9.9 3 15 C1.68 15.33 0.36 15.66 -1 16 C-2.34152827 13.31694346 -1.91701204 11.53391979 -1.625 8.5625 C-1.53476562 7.59441406 -1.44453125 6.62632813 -1.3515625 5.62890625 C-1 3 -1 3 0 0 Z " fill="#E8661B" transform="translate(457,110)"/>
<path d="M0 0 C-1.5625 2 -1.5625 2 -4 4 C-7.75 4.25 -7.75 4.25 -11 4 C-11.66 2.68 -12.32 1.36 -13 0 C-11.58456585 -0.19658808 -10.16755969 -0.38187546 -8.75 -0.5625 C-7.96109375 -0.66691406 -7.1721875 -0.77132812 -6.359375 -0.87890625 C-3.99467126 -1.00027349 -2.2488963 -0.69633257 0 0 Z " fill="#2785DA" transform="translate(173,216)"/>
<path d="M0 0 C0.57975586 0.23066162 1.15951172 0.46132324 1.75683594 0.69897461 C0.74556641 1.21911133 0.74556641 1.21911133 -0.28613281 1.74975586 C-4.21553717 4.33994447 -7.2823863 7.52554986 -10.55566406 10.88647461 C-11.20083984 11.54067383 -11.84601563 12.19487305 -12.51074219 12.86889648 C-14.09286922 14.47446244 -15.67011536 16.08452151 -17.24316406 17.69897461 C-17.57316406 16.70897461 -17.90316406 15.71897461 -18.24316406 14.69897461 C-15.67922288 12.15775076 -13.08917081 9.64489981 -10.49316406 7.13647461 C-9.76355469 6.41266602 -9.03394531 5.68885742 -8.28222656 4.94311523 C-7.57324219 4.26313477 -6.86425781 3.5831543 -6.13378906 2.88256836 C-5.48442383 2.24891357 -4.83505859 1.61525879 -4.16601562 0.96240234 C-2.24316406 -0.30102539 -2.24316406 -0.30102539 0 0 Z " fill="#FA6B35" transform="translate(162.2431640625,122.301025390625)"/>
<path d="M0 0 C0.33 0.66 0.66 1.32 1 2 C1.66 2 2.32 2 3 2 C2.67 7.28 2.34 12.56 2 18 C1.67 18 1.34 18 1 18 C1 13.38 1 8.76 1 4 C0.34 4 -0.32 4 -1 4 C-1.33 8.62 -1.66 13.24 -2 18 C-2.33 18 -2.66 18 -3 18 C-3.08150744 15.93816367 -3.1394194 13.87538651 -3.1875 11.8125 C-3.22230469 10.66394531 -3.25710938 9.51539062 -3.29296875 8.33203125 C-2.97622579 4.72960801 -2.08533398 2.90633161 0 0 Z " fill="#E48F64" transform="translate(458,106)"/>
<path d="M0 0 C1.32 0.33 2.64 0.66 4 1 C4 2.32 4 3.64 4 5 C5.32 5.33 6.64 5.66 8 6 C8 6.66 8 7.32 8 8 C5.36 8 2.72 8 0 8 C0 5.36 0 2.72 0 0 Z " fill="#1993FD" transform="translate(188,178)"/>
<path d="M0 0 C0.99 0.33 1.98 0.66 3 1 C5.63804589 0.60602665 5.63804589 0.60602665 8 0 C7.67 0.66 7.34 1.32 7 2 C6.34 1.67 5.68 1.34 5 1 C5 2.65 5 4.3 5 6 C3.0625 6.5625 3.0625 6.5625 1 7 C0 6 0 6 -0.0625 2.9375 C-0.041875 1.968125 -0.02125 0.99875 0 0 Z " fill="#EE8D6C" transform="translate(487,131)"/>
<path d="M0 0 C0.99 0 1.98 0 3 0 C3 5.94 3 11.88 3 18 C2.67 18 2.34 18 2 18 C1.86722656 17.09636719 1.73445313 16.19273438 1.59765625 15.26171875 C1.42105469 14.08222656 1.24445313 12.90273437 1.0625 11.6875 C0.88847656 10.51574219 0.71445312 9.34398438 0.53515625 8.13671875 C0.07906969 4.98358597 0.07906969 4.98358597 -1 2 C-0.67 1.34 -0.34 0.68 0 0 Z " fill="#FC7C41" transform="translate(486,105)"/>
<path d="M0 0 C0.33 0.66 0.66 1.32 1 2 C-1.40545638 3.20272819 -2.94996953 3.10071472 -5.625 3.0625 C-6.85089844 3.04896484 -6.85089844 3.04896484 -8.1015625 3.03515625 C-9.04128906 3.01775391 -9.04128906 3.01775391 -10 3 C-10 2.34 -10 1.68 -10 1 C-6.78548731 -0.60725635 -3.56387464 -0.05748185 0 0 Z " fill="#FB7617" transform="translate(479,98)"/>
<path d="M0 0 C0.99 0.33 1.98 0.66 3 1 C3.33 2.98 3.66 4.96 4 7 C1.69 7.33 -0.62 7.66 -3 8 C-2.34 7.34 -1.68 6.68 -1 6 C-0.60235737 4.01178687 -0.26224651 2.01055661 0 0 Z " fill="#EFE4E6" transform="translate(460,131)"/>
<path d="M0 0 C1.65 0 3.3 0 5 0 C4.835 0.763125 4.67 1.52625 4.5 2.3125 C3.90854604 5.03596236 3.90854604 5.03596236 4 8 C3.01 8 2.02 8 1 8 C0.67 5.36 0.34 2.72 0 0 Z " fill="#47A6FE" transform="translate(176,127)"/>
<path d="M0 0 C2.4294516 3.6441774 2.16179575 5.71241272 2 10 C1.01 9.67 0.02 9.34 -1 9 C-1.125 2.25 -1.125 2.25 0 0 Z " fill="#1596FC" transform="translate(205,207)"/>
<path d="M0 0 C0.99 0 1.98 0 3 0 C3.33 1.65 3.66 3.3 4 5 C4.66 5 5.32 5 6 5 C6.33 3.68 6.66 2.36 7 1 C7 2.65 7 4.3 7 6 C5.0625 6.5625 5.0625 6.5625 3 7 C2 6 2 6 1.9375 3.4375 C1.958125 2.633125 1.97875 1.82875 2 1 C1.34 0.67 0.68 0.34 0 0 Z " fill="#DE896A" transform="translate(453,131)"/>
<path d="M0 0 C0.33 0 0.66 0 1 0 C1.33 2.97 1.66 5.94 2 9 C0.68 9.33 -0.64 9.66 -2 10 C-2.33 9.34 -2.66 8.68 -3 8 C-2.34 8 -1.68 8 -1 8 C-1.020625 6.865625 -1.04125 5.73125 -1.0625 4.5625 C-1 1 -1 1 0 0 Z " fill="#F5600E" transform="translate(458,116)"/>
<path d="M0 0 C1 2 2 4 3 6 C2.67 6.66 2.34 7.32 2 8 C2.66 8.33 3.32 8.66 4 9 C1.5625 8.625 1.5625 8.625 -1 8 C-1.33 7.34 -1.66 6.68 -2 6 C-1.34 6 -0.68 6 0 6 C0 4.02 0 2.04 0 0 Z " fill="#45AAFA" transform="translate(207,211)"/>
<path d="M0 0 C2.475 0.495 2.475 0.495 5 1 C5 2.98 5 4.96 5 7 C4.34 7 3.68 7 3 7 C2.67 5.35 2.34 3.7 2 2 C1.34 2 0.68 2 0 2 C0 1.34 0 0.68 0 0 Z " fill="#F65A18" transform="translate(454,129)"/>
<path d="M0 0 C1.98 0 3.96 0 6 0 C4.3545622 1.68762851 2.68711423 3.3540349 1 5 C0.67 5 0.34 5 0 5 C0 3.35 0 1.7 0 0 Z " fill="#2B97FD" transform="translate(304,148)"/>
</svg>
